<?xml version="1.0" encoding="UTF-8" standalone="no"?>
<!DOCTYPE svg PUBLIC "-//W3C//DTD SVG 1.1//EN" "http://www.w3.org/Graphics/SVG/1.1/DTD/svg11.dtd">
<svg width="100%" height="100%" viewBox="0 0 600 400" version="1.1" xmlns="http://www.w3.org/2000/svg" xmlns:xlink="http://www.w3.org/1999/xlink" xml:space="preserve" xmlns:serif="http://www.serif.com/" style="fill-rule:evenodd;clip-rule:evenodd;stroke-linejoin:round;stroke-miterlimit:2;">
    <g id="Layer1">
        <rect x="-1028.23" y="-248.288" width="1712.17" height="4055.19" style="fill:#3d4345;"/>
        <rect x="-13.101" y="-13.059" width="626.202" height="426.201" style="fill:url(#_Radial1);"/>
        <g id="CorelEMF" serif:id="CorelEMF">
        </g>
        <g id="CorelEMF1" serif:id="CorelEMF">
        </g>
        <g>
            <g id="CorelEMF2" serif:id="CorelEMF">
            </g>
        </g>
        <g id="CorelEMF3" serif:id="CorelEMF">
        </g>
        <g id="CorelEMF4" serif:id="CorelEMF">
        </g>
        <path d="M293.614,155.313C293.614,155.313 301.101,155.253 305.182,155.313C307.037,155.34 308.518,156.094 309.772,156.909C310.154,157.158 310.511,157.408 310.852,157.622C311.07,157.759 311.242,157.924 311.441,157.938C315.102,158.194 322.648,162.914 319.022,170.723C318.684,171.45 317.932,171.892 317.133,171.833C317.133,171.833 316.63,171.79 315.985,171.77C316.77,172.912 317.396,173.883 317.75,174.445C317.78,174.494 317.964,174.515 318.308,174.353C326.472,170.514 335.478,165.171 345.756,157.57C350.577,153.835 363.844,145.56 381.258,143.388C381.305,143.383 381.352,143.376 381.399,143.371C382.351,143.264 392.74,141.981 402.796,140.627C410.66,139.568 442.244,134.527 450.843,133.327C470.974,130.515 489.527,127.075 506.992,123.201C508.615,122.84 510.321,123.199 511.643,124.169C513.005,125.169 513.819,126.704 513.879,128.346C514.348,141.119 507.047,151.175 492.703,158.179C490.589,159.211 488.311,160.177 485.874,161.077C486.139,161.062 486.405,161.047 486.67,161.033C488.345,160.939 489.973,161.578 491.11,162.759C492.283,163.978 492.815,165.639 492.573,167.279C490.88,178.756 483.423,186.592 470.539,190.778C469.029,191.268 467.437,191.706 465.765,192.091C466.411,192.501 466.969,193.039 467.398,193.678C468.337,195.073 468.57,196.799 468.038,198.379C464.69,208.327 456.969,214.215 445.169,216.114C442.737,216.506 440.109,216.715 437.294,216.745C437.504,217.925 437.311,219.152 436.723,220.234C431.12,230.55 422.316,234.851 409.358,233.153C409.166,233.658 408.896,234.137 408.552,234.575C404.586,239.626 400.197,242.618 395.248,243.757C391.171,244.696 386.599,244.393 381.352,242.52C381.201,242.648 381.042,242.769 380.876,242.882C375.916,246.247 370.596,247.968 364.736,247.245C362.414,246.959 359.963,246.258 357.381,245.028C356.978,245.323 356.531,245.569 356.048,245.753C348.768,248.534 335.717,247.577 328.219,236.788C327.604,237.13 326.939,237.351 326.258,237.451C326.726,237.886 326.995,238.128 326.995,238.128C326.996,238.128 326.996,238.128 326.996,238.128C328.126,239.14 328.776,240.547 328.812,242.028C328.848,243.511 328.266,244.948 327.185,246.01C327.182,246.013 327.179,246.016 327.176,246.019C327.176,246.019 324.605,248.493 323.406,250.562C323.076,251.13 321.719,252.93 320.523,254.077C319.796,254.775 319.064,255.235 318.56,255.388C317.639,255.667 316.264,256.781 314.837,258.054C312.716,259.947 310.076,263.226 309.674,263.731C309.664,263.805 309.65,263.879 309.631,263.952C309.205,265.618 308.718,267.22 308.122,268.705C308.039,268.912 307.921,269.103 307.772,269.269L301.436,276.375C301.071,276.785 300.548,277.019 299.999,277.019C299.449,277.019 298.926,276.785 298.561,276.375L292.23,269.275C292.082,269.109 291.963,268.918 291.88,268.711C291.284,267.225 290.795,265.621 290.369,263.952C290.35,263.879 290.336,263.805 290.326,263.731C289.923,263.226 287.284,259.947 285.163,258.054C283.736,256.781 282.361,255.667 281.44,255.388C280.936,255.235 280.204,254.775 279.477,254.077C278.28,252.93 276.924,251.13 276.594,250.562C275.395,248.493 272.824,246.019 272.824,246.019C272.821,246.016 272.818,246.013 272.815,246.01C271.734,244.948 271.152,243.511 271.188,242.028C271.224,240.547 271.874,239.14 273.004,238.128C273.004,238.128 273.004,238.128 273.005,238.128C273.005,238.128 273.274,237.886 273.742,237.451C273.062,237.351 272.396,237.13 271.781,236.788C264.283,247.577 251.232,248.534 243.952,245.753C243.469,245.569 243.022,245.323 242.619,245.028C240.037,246.258 237.586,246.959 235.264,247.245C229.404,247.968 224.084,246.247 219.124,242.882C218.958,242.769 218.799,242.648 218.648,242.52C213.401,244.393 208.829,244.696 204.752,243.757C199.803,242.618 195.414,239.626 191.448,234.575C191.104,234.137 190.834,233.658 190.642,233.153C177.684,234.851 168.88,230.55 163.277,220.234C162.689,219.152 162.496,217.925 162.706,216.745C159.891,216.715 157.263,216.506 154.831,216.114C143.031,214.215 135.31,208.327 131.962,198.379C131.43,196.799 131.663,195.073 132.602,193.678C133.031,193.039 133.589,192.501 134.235,192.091C132.563,191.706 130.971,191.268 129.461,190.778C116.577,186.592 109.12,178.756 107.427,167.279C107.185,165.639 107.717,163.978 108.89,162.759C110.027,161.578 111.655,160.939 113.33,161.033C113.595,161.047 113.861,161.062 114.126,161.077C111.689,160.177 109.411,159.211 107.297,158.179C92.953,151.175 85.652,141.119 86.121,128.346C86.181,126.704 86.995,125.169 88.357,124.169C89.679,123.199 91.385,122.84 93.008,123.201C110.473,127.075 129.025,130.515 149.157,133.327C157.756,134.527 189.34,139.568 197.204,140.627C207.26,141.981 217.649,143.264 218.601,143.371C218.648,143.376 218.695,143.383 218.742,143.388C236.154,145.56 249.419,153.832 254.242,157.569C264.532,165.178 273.545,170.524 281.714,174.364C281.786,174.398 282.15,174.574 282.15,174.574C282.903,173.183 285.634,168.033 286.89,165.648C287.305,164.862 287.733,164.096 288.008,163.342C288.176,162.883 288.305,162.44 288.202,162C287.824,160.375 288.223,158.672 289.301,157.365C290.346,156.097 291.927,155.338 293.614,155.313Z"/>
        <path d="M296.067,265.995L299.999,270.403L303.933,265.991C304.892,260.943 303.557,252.522 300,238.194C297.2,249.472 295.777,257.09 295.766,262.285C295.763,263.691 295.863,264.92 296.067,265.995ZM300,232.651C300,232.651 292.419,252.725 293.418,259.434C292.124,256.834 287.181,252.163 283.744,250.409C288.61,246.308 296.614,232.997 297.411,225.718C298.049,226.675 300,228.058 300,228.058C300,228.058 301.951,226.675 302.589,225.718C303.386,232.997 311.39,246.308 316.256,250.409C312.819,252.163 307.876,256.834 306.582,259.434C307.581,252.725 300,232.651 300,232.651ZM295.712,224.026C295.753,230.893 287.707,244.351 281.504,247.872C280.003,245.283 276.823,242.158 276.823,242.158C276.823,242.158 292.779,227.877 292.731,220.317C293.369,221.273 295.712,224.026 295.712,224.026ZM304.288,224.026C304.247,230.893 312.293,244.351 318.496,247.872C319.997,245.283 323.177,242.158 323.177,242.158C323.177,242.158 307.221,227.877 307.269,220.317C306.631,221.273 304.288,224.026 304.288,224.026ZM246.518,218.238C234.933,229.535 233.009,230.518 222.35,238.39C231.752,244.767 242.652,244.065 258.219,223.258C256.713,223.149 255.249,222.669 253.831,221.8C249.346,225.697 245.686,228.092 243.993,227.9C246.325,225.172 248.691,222.345 251.099,219.396C250.903,219.023 250.796,218.608 250.791,218.183C250.789,217.965 250.814,217.75 250.864,217.541C249.349,218.005 247.898,218.234 246.518,218.238ZM353.482,218.238C365.067,229.535 366.99,230.518 377.65,238.39C368.248,244.767 357.348,244.065 341.781,223.258C343.287,223.149 344.751,222.669 346.169,221.8C350.654,225.697 354.314,228.092 356.007,227.9C353.675,225.172 351.309,222.345 348.901,219.396C349.097,219.023 349.204,218.608 349.208,218.183C349.211,217.965 349.186,217.75 349.136,217.541C350.651,218.005 352.102,218.234 353.482,218.238ZM259.526,223.262C251.573,234.576 253.738,232.358 246.014,240.655C253.049,243.342 266.825,241.118 270.674,225.541C269.406,225.556 268.114,225.29 266.811,224.69C263.578,228.79 260.81,231.445 259.322,231.522C260.942,228.683 262.577,225.743 264.229,222.681C264.123,222.463 264.047,222.234 264.002,221.999L263.998,222.001C262.473,222.74 260.981,223.166 259.526,223.262ZM340.474,223.262C348.427,234.576 346.262,232.358 353.986,240.655C346.951,243.342 333.175,241.118 329.326,225.541C330.594,225.556 331.886,225.29 333.189,224.69C336.422,228.79 339.19,231.445 340.678,231.522C339.058,228.683 337.423,225.743 335.771,222.681C335.877,222.463 335.953,222.234 335.998,221.999L336.002,222.001C337.527,222.74 339.019,223.166 340.474,223.262ZM233.172,210.181C217.337,220.821 209.922,224.393 195.928,231.251C206.081,244.179 218.803,240.925 244.932,218.139C244.802,218.122 244.672,218.103 244.543,218.082C242.848,217.804 241.25,217.165 239.776,216.122C233.891,219.59 229.254,221.552 227.377,221.023C230.466,218.538 233.61,215.957 236.819,213.259C236.373,212.662 236.193,211.918 236.322,211.193C236.404,210.727 236.609,210.295 236.91,209.933C235.606,210.134 234.359,210.217 233.172,210.181ZM366.828,210.181C382.663,220.821 390.078,224.393 404.072,231.251C393.918,244.179 381.197,240.925 355.068,218.139C355.198,218.122 355.328,218.103 355.457,218.082C357.152,217.804 358.75,217.165 360.224,216.122C366.109,219.59 370.746,221.552 372.623,221.023C369.534,218.538 366.39,215.957 363.181,213.259C363.627,212.662 363.807,211.918 363.678,211.193C363.596,210.727 363.391,210.295 363.09,209.933C364.394,210.134 365.641,210.217 366.828,210.181ZM312.655,212.334L308.191,219.028C308.462,219.735 309.303,221.085 312.153,222.2L314.807,222.5L316.217,223.966C314.588,224.186 313.286,225.264 313.164,226.446C313.828,226.029 315.109,225.854 316.39,226.148C316.727,226.859 317.479,229.857 317.441,230.773L319.271,231.703C319.742,232.179 319.427,234.098 318.801,234.574C320.082,234.739 321.226,232.869 320.998,231.523C322.249,230.329 320.505,227.431 319.298,225.944C320.579,226.595 321.564,227.375 321.988,228.437L323.424,228.19C325.173,228.925 325.698,230.659 325.416,232.035C326.982,231.078 327.589,228.529 326,227.44C325.041,226.116 323.538,225.063 321.347,224.355C322.15,223.832 323.131,223.674 324.363,224.023C324.997,224.339 325.233,224.802 325.171,225.375C327.846,225.103 327.698,222.464 326.033,221.929L325.94,221.421C324.522,220.702 320.546,221.008 318.699,222.136C315.018,219.43 317.012,217.436 312.655,212.334ZM287.345,212.334L291.809,219.028C291.538,219.735 290.697,221.085 287.847,222.2L285.193,222.5L283.783,223.966C285.412,224.186 286.714,225.264 286.836,226.446C286.172,226.029 284.891,225.854 283.61,226.148C283.273,226.859 282.521,229.857 282.559,230.773L280.729,231.703C280.258,232.179 280.573,234.098 281.199,234.574C279.918,234.739 278.774,232.869 279.002,231.523C277.751,230.329 279.495,227.431 280.702,225.944C279.421,226.595 278.436,227.375 278.012,228.437L276.576,228.19C274.827,228.925 274.302,230.659 274.584,232.035C273.018,231.078 272.411,228.529 274,227.44C274.959,226.116 276.462,225.063 278.653,224.355C277.85,223.832 276.868,223.674 275.637,224.023C275.003,224.339 274.767,224.802 274.829,225.375C272.154,225.103 272.301,222.464 273.967,221.929L274.06,221.421C275.478,220.702 279.454,221.008 281.301,222.136C284.982,219.43 282.988,217.436 287.345,212.334ZM225.663,226.273C224.232,225.845 211.676,229.66 205.844,232.557C206.343,232.78 206.859,232.955 207.396,233.079C210.125,233.707 213.188,233 216.879,231.342C219.563,230.136 222.473,228.448 225.663,226.273ZM394.156,232.557C388.324,229.66 375.768,225.845 374.337,226.273C377.527,228.448 380.437,230.136 383.121,231.342C386.812,233 389.875,233.707 392.604,233.079C393.141,232.955 393.657,232.78 394.156,232.557ZM220.383,198.689C199.596,207.868 185.998,212.57 168.261,217.676C177.125,233.995 196.423,230.672 231.145,209.995C228.788,209.622 226.699,208.714 224.894,207.252C217.581,209.951 211.984,211.23 209.983,210.301C213.836,208.217 217.765,206.044 221.784,203.764C221.569,203.439 221.362,203.102 221.161,202.752C220.762,202.058 220.694,201.232 220.974,200.487C221.255,199.741 221.857,199.147 222.627,198.856L222.869,198.764C222.014,198.773 221.185,198.748 220.383,198.689ZM379.617,198.689C400.404,207.868 414.002,212.57 431.739,217.676C422.875,233.995 403.577,230.672 368.855,209.995C371.212,209.622 373.301,208.714 375.106,207.252C382.419,209.951 388.016,211.23 390.017,210.301C386.164,208.217 382.235,206.044 378.216,203.764C378.431,203.439 378.638,203.102 378.839,202.752C379.238,202.058 379.306,201.232 379.026,200.487C378.745,199.741 378.143,199.147 377.373,198.856L377.131,198.764C377.986,198.773 378.815,198.748 379.617,198.689ZM300,213.498C300.787,210.979 301.359,207.496 301.596,203.519C303.087,201.965 304.451,199.796 305.667,198.614C306.021,204.739 305.579,219.477 300,225.257C294.421,219.477 293.979,204.739 294.333,198.614C295.549,199.796 296.913,201.965 298.404,203.519C298.641,207.496 299.213,210.979 300,213.498ZM421.811,220.495C412.984,217.801 391.664,215.602 391.139,215.738C398.747,219.31 405.252,221.52 410.79,222.262C415.257,222.86 418.909,222.308 421.811,220.495ZM208.861,215.738C208.336,215.602 187.016,217.801 178.189,220.495C181.091,222.308 184.743,222.86 189.21,222.262C194.748,221.52 201.253,219.31 208.861,215.738ZM316.423,184.069C318.152,193.727 321.044,202.038 324.15,208.458C327.256,214.878 330.576,219.408 333.162,221.506C326.423,226.078 316.75,207.438 316.423,184.069ZM283.577,184.069C281.848,193.727 278.956,202.038 275.85,208.458C272.744,214.878 269.423,219.408 266.838,221.506C273.577,226.078 283.25,207.438 283.577,184.069ZM282.627,180.768C282.106,180.549 281.496,180.744 281.216,181.218C279.29,184.47 272.418,196.075 272.418,196.075C265.547,205.583 260.114,211.895 253.674,218.155C262.683,230.584 276.966,207.364 282.628,180.768C282.627,180.768 282.627,180.768 282.627,180.768ZM317.373,180.768C317.894,180.549 318.504,180.744 318.784,181.218C320.71,184.47 327.582,196.075 327.582,196.075C334.453,205.583 339.886,211.895 346.326,218.155C337.317,230.584 323.034,207.364 317.372,180.768C317.372,180.768 317.373,180.768 317.373,180.768ZM306.674,195.337C308.046,202.573 308.279,212.017 305.044,220.02C312.463,210.044 313.92,201.033 313.513,199.48C312.875,200.436 310.55,201.622 309.35,201.778L306.674,195.337ZM293.326,195.337C291.954,202.573 291.721,212.017 294.956,220.02C287.537,210.044 286.08,201.033 286.487,199.48C287.125,200.436 289.45,201.622 290.65,201.778L293.326,195.337ZM284.296,196.754C283.593,203.28 281.332,211.327 278.118,216.789C281.53,215.178 285.283,212.311 286.271,208.713C284.835,205.592 284.149,201.201 284.296,196.754ZM315.704,196.754C316.407,203.28 318.668,211.327 321.882,216.789C318.469,215.178 314.717,212.311 313.729,208.713C315.165,205.592 315.851,201.201 315.704,196.754ZM323.737,180.084C322.896,179.194 321.547,178.935 320.413,179.447C320.413,179.447 320.413,179.447 320.413,179.447C342.515,219.813 354.421,219.761 360.836,211.654C352.286,206.211 343.344,199.53 333.702,190.635C333.702,190.635 326.795,183.322 323.737,180.084ZM276.263,180.084C277.103,179.194 278.453,178.935 279.587,179.447C279.587,179.447 279.587,179.447 279.587,179.447C257.485,219.813 245.579,219.761 239.164,211.654C247.714,206.211 256.656,199.53 266.298,190.635C266.298,190.635 273.205,183.322 276.263,180.084ZM206.962,184.264C202.578,185.199 157.823,194.41 137.319,196.676C144.017,216.581 173.407,215.176 217.73,198.349C214.559,197.757 211.874,196.531 209.704,194.649C201.024,196.218 194.557,196.561 192.509,195.176C197.013,193.686 201.61,192.123 206.314,190.471C205.856,189.667 205.446,188.803 205.084,187.879C204.781,187.108 204.855,186.247 205.284,185.533C205.655,184.916 206.258,184.464 206.962,184.264C207.223,184.209 207.341,184.183 207.303,184.189C207.187,184.208 207.073,184.233 206.962,184.264ZM393.038,184.264C392.777,184.209 392.659,184.183 392.697,184.189C392.813,184.208 392.927,184.233 393.038,184.264C397.422,185.199 442.177,194.41 462.681,196.676C455.983,216.581 426.593,215.176 382.27,198.349C385.441,197.757 388.126,196.531 390.296,194.649C398.976,196.218 405.443,196.561 407.491,195.176C402.987,193.686 398.39,192.123 393.685,190.471C394.144,189.667 394.554,188.803 394.916,187.879C395.219,187.108 395.145,186.247 394.716,185.533C394.345,184.916 393.742,184.464 393.038,184.264ZM269.516,177.722C271.296,176.631 273.549,176.535 275.423,177.47C275.437,177.477 275.45,177.484 275.463,177.49C241.985,212.746 229.471,211.49 223.686,201.422C234.511,197.328 246.013,191.965 258.726,184.338C258.726,184.338 265.487,180.192 269.516,177.722ZM330.484,177.722C328.704,176.631 326.451,176.535 324.577,177.47C324.563,177.477 324.55,177.484 324.537,177.49C358.015,212.746 370.529,211.49 376.314,201.422C365.489,197.328 353.987,191.965 341.274,184.338C341.274,184.338 334.513,180.192 330.484,177.722ZM453.334,200.998C441.278,199.226 408.99,200.67 407.645,201.014C418.822,204.144 428.53,205.806 436.57,205.786C443.856,205.769 449.595,204.354 453.334,200.998ZM192.354,201.014C191.01,200.67 158.722,199.226 146.666,200.998C150.405,204.354 156.144,205.769 163.43,205.786C171.47,205.806 181.178,204.144 192.354,201.014ZM300,193.103C300.573,191.268 301.032,188.922 301.331,186.247C302.926,185.448 304.098,184.889 305.386,183.937C306.298,193.123 305.358,197.782 300,202.592C294.642,197.782 293.702,193.123 294.614,183.937C295.902,184.889 297.074,185.448 298.669,186.247C298.968,188.922 299.427,191.268 300,193.103ZM306.674,182.951C307.44,186.188 307.058,189.935 307.467,192.435C308.017,195.797 309.297,197.671 310.089,200.309C317.661,196.326 314.183,179.403 313.137,177.62C312.92,178.243 311.158,180.188 311.158,180.188C311.158,180.188 312.224,184.412 311.471,187.284C311.02,183.03 308.734,181.74 308.734,181.74C308.734,181.74 306.9,182.897 306.674,182.951ZM293.326,182.951C292.56,186.188 292.942,189.935 292.533,192.435C291.983,195.797 290.703,197.671 289.911,200.309C282.339,196.326 285.817,179.403 286.863,177.62C287.079,178.243 288.842,180.188 288.842,180.188C288.842,180.188 287.776,184.412 288.529,187.284C288.98,183.03 291.266,181.74 291.266,181.74C291.266,181.74 293.1,182.897 293.326,182.951ZM261.526,172.268C263.155,171.707 264.959,171.86 266.46,172.686C267.237,173.122 268.02,173.522 268.811,173.887L268.811,173.887C269.096,174.054 269.382,174.221 269.67,174.386C226.72,202.606 212.43,198.769 207.782,186.91C220.972,184.778 235.173,181.409 251.182,175.828C251.182,175.828 257.719,173.578 261.526,172.268ZM338.474,172.268C336.845,171.707 335.041,171.86 333.54,172.686C332.763,173.122 331.98,173.522 331.189,173.887L331.189,173.887C330.904,174.054 330.618,174.221 330.33,174.386C373.28,202.606 387.57,198.769 392.217,186.91C379.028,184.778 364.827,181.409 348.818,175.828C348.818,175.828 342.281,173.578 338.474,172.268ZM238.782,185.58C232.181,187.488 225.876,189.033 219.803,190.293C220.943,190.412 222.232,190.381 223.683,190.216C227.743,189.753 232.7,188.281 238.782,185.58ZM361.218,185.58C367.3,188.281 372.257,189.753 376.317,190.216C377.768,190.381 379.057,190.412 380.197,190.293C374.124,189.032 367.819,187.488 361.218,185.58ZM189.531,167.123C161.168,168.999 136.28,167.802 113.007,166.502C116.472,190.007 150.652,193.806 205.244,183.104C200.877,182.065 197.332,180.304 194.66,177.797C184.908,177.86 169.451,177.369 167.474,175.503C174.557,175.228 185.814,173.637 190.954,172.786C190.266,171.393 189.064,167.753 189.531,167.123ZM410.469,167.123C438.832,168.999 463.72,167.802 486.993,166.502C483.527,190.007 449.348,193.806 394.756,183.104C399.123,182.065 402.668,180.304 405.34,177.797C415.092,177.86 430.549,177.369 432.526,175.503C425.443,175.228 414.186,173.637 409.046,172.786C409.734,171.393 410.936,167.753 410.469,167.123ZM309.38,162.558C312.623,162.793 315.005,163.888 315.223,167.141C313.66,166.562 311.474,166.68 308.518,167.657C308.3,167.729 305.78,167.98 305.553,168.061C305.562,168.27 307.916,168.587 307.942,168.79C308.362,172.061 310.906,174.275 312.062,176.06C312.083,178.082 305.904,182.334 300,184.329C294.274,182.586 288.523,177.98 287.874,175.983C289.404,171.24 294.78,165.433 293.699,160.79C293.699,160.79 302.149,160.666 304.166,160.637C304.495,160.632 304.824,160.659 305.148,160.719C306.668,160.999 307.573,161.274 308.159,162.248C306.557,162.529 306.722,162.028 305.832,161.974C304.581,161.898 303.074,162.018 302.114,162.142C303.482,162.654 304.358,163.606 304.783,164.299C306.194,163.583 307.779,162.548 309.38,162.558ZM121.252,172.458C134.219,173.131 166.111,181.269 168.925,181.844C170.034,182.07 171.401,182.266 172.944,182.435C160.403,183.64 149.647,183.617 140.908,182.207C131.606,180.706 124.797,177.672 121.252,172.458ZM427.056,182.435C428.599,182.266 429.966,182.07 431.075,181.844C433.889,181.269 465.781,173.131 478.748,172.458C475.203,177.672 468.394,180.706 459.092,182.207C450.353,183.617 439.597,183.64 427.056,182.435ZM348.939,164.055C347.409,163.868 345.863,164.262 344.633,165.153C342.412,166.77 340.311,168.33 338.246,169.745C389.856,188.493 404.785,181.045 407.825,167.632C392.278,168.154 375.342,167.543 355.922,164.909C355.922,164.909 351.713,164.394 348.939,164.055ZM251.061,164.055C252.591,163.868 254.137,164.262 255.367,165.153C257.588,166.77 259.689,168.33 261.754,169.745C210.144,188.493 195.215,181.045 192.175,167.632C207.722,168.154 224.658,167.543 244.078,164.909C244.078,164.909 248.287,164.394 251.061,164.055ZM297.201,178.168C295.49,177.15 293.051,174.584 293.221,174.289C294.389,175.017 295.64,175.727 296.872,176.301C297.95,175.802 299.054,175.222 300.108,174.628C301.114,175.236 302.167,175.816 303.207,176.301C304.124,175.877 305.06,175.393 305.969,174.892C306.198,175.262 304.341,177.42 302.997,178.168C302.028,177.628 301.023,177.105 300.039,176.65C299.089,177.093 298.127,177.617 297.201,178.168ZM240.325,170.942C226.72,172.604 214.315,173.286 202.727,173.303C204.443,174.287 206.643,174.972 209.425,175.287C216.515,176.089 226.457,174.868 240.325,170.942ZM359.675,170.942C373.543,174.868 383.485,176.089 390.575,175.287C393.357,174.972 395.557,174.287 397.273,173.303C385.685,173.286 373.281,172.604 359.675,170.942ZM196.963,164.636C193.749,164.198 182.005,159.932 180.236,156.04C170.068,154.329 149.391,150.354 147.636,148.044C157.169,150.777 171.23,150.037 176.406,150.064C175.572,148.02 175.07,145.797 174.908,143.394C174.876,142.91 174.977,142.434 175.193,142.01C144.193,138.79 116.858,134.111 91.753,128.541C90.772,155.276 132.604,166.331 196.963,164.636ZM403.037,164.636C406.251,164.198 417.995,159.932 419.764,156.04C429.932,154.329 450.609,150.354 452.364,148.044C442.831,150.777 428.77,150.037 423.594,150.064C424.428,148.02 424.93,145.797 425.092,143.394C425.124,142.91 425.023,142.434 424.807,142.01C455.807,138.79 483.142,134.111 508.247,128.541C509.228,155.276 467.396,166.331 403.037,164.636ZM250.918,161.991C244.458,162.848 238.225,163.503 232.811,163.85C196.448,166.183 178.964,160.779 177.785,143.217C184.243,144.644 197.523,146.451 212.908,148.236L212.908,148.236C214.567,148.429 216.25,148.621 217.953,148.812C232.904,150.961 242.872,156.471 250.918,161.991ZM349.082,161.991C355.542,162.848 361.775,163.503 367.189,163.85C403.552,166.183 421.036,160.779 422.215,143.217C415.756,144.644 402.477,146.451 387.092,148.236L387.092,148.236C385.433,148.429 383.75,148.621 382.047,148.812C367.096,150.961 357.128,156.471 349.082,161.991ZM210.032,153.441C210.755,153.526 214.667,153.979 215.909,154.12C216.334,154.168 216.761,154.217 217.189,154.265C223.142,155.127 228.238,156.571 232.704,158.344L232.426,158.362C215.323,159.459 202.648,158.906 194.122,155.844C190.49,154.54 187.793,152.713 186.022,150.274C192.518,151.274 200.858,152.361 210.032,153.441ZM367.296,158.344C371.762,156.571 376.857,155.128 382.81,154.265C384.489,154.076 386.148,153.886 387.783,153.697L387.092,153.737L387.785,153.696C397.818,152.532 406.97,151.353 413.978,150.274C412.207,152.713 409.51,154.54 405.878,155.844C397.352,158.906 384.677,159.459 367.574,158.362L367.296,158.344ZM434.719,158.852C441.102,157.547 447.492,156.065 451.229,154.772C454.421,153.667 487.007,138.679 501.33,135.673C499.229,140.879 494.422,145.035 487.562,148.384C475.378,154.333 457.275,157.699 434.719,158.852ZM98.67,135.673C112.993,138.679 145.579,153.667 148.771,154.772C152.508,156.065 158.898,157.547 165.281,158.852C142.725,157.699 124.622,154.333 112.438,148.384C105.578,145.035 100.771,140.879 98.67,135.673Z" style="fill:#aaa;"/>
    </g>
    <defs>
        <radialGradient id="_Radial1" cx="0" cy="0" r="1" gradientUnits="userSpaceOnUse" gradientTransform="matrix(2.19595e-14,-366.128,358.626,2.24189e-14,300,200.041)"><stop offset="0" style="stop-color:#fff;stop-opacity:1"/><stop offset="1" style="stop-color:#eee;stop-opacity:1"/></radialGradient>
    </defs>
</svg>
