<svg width="100%" height="100%" viewBox="0 0 600 400" version="1.1" xmlns="http://www.w3.org/2000/svg" xml:space="preserve" fill-rule="evenodd" clip-rule="evenodd" stroke-linejoin="round" stroke-miterlimit="2"><g id="Layer1"><path fill="#3d4345" d="M-1028.23-248.288H683.94v4055.19h-1712.17z"/><path fill="url(#_Radial1)" d="M-13.101-13.059h626.202v426.201H-13.101z"/><path d="M293.614 155.313s7.487-.06 11.568 0c1.855.027 3.336.781 4.59 1.596.382.249.739.499 1.08.713.218.137.39.302.589.316 3.661.256 11.207 4.976 7.581 12.785a1.927 1.927 0 01-1.889 1.11s-.503-.043-1.148-.063a82.494 82.494 0 011.765 2.675c.03.049.214.07.558-.092 8.164-3.839 17.17-9.182 27.448-16.783 4.821-3.735 18.088-12.01 35.502-14.182l.141-.017c.952-.107 11.341-1.39 21.397-2.744 7.864-1.059 39.448-6.1 48.047-7.3a714.223 714.223 0 0056.149-10.126 5.77 5.77 0 014.651.968 5.429 5.429 0 012.236 4.177c.469 12.773-6.832 22.829-21.176 29.833a74.063 74.063 0 01-6.829 2.898l.796-.044a5.727 5.727 0 014.44 1.726 5.374 5.374 0 011.463 4.52c-1.693 11.477-9.15 19.313-22.034 23.499-1.51.49-3.102.928-4.774 1.313.646.41 1.204.948 1.633 1.587a5.339 5.339 0 01.64 4.701c-3.348 9.948-11.069 15.836-22.869 17.735-2.432.392-5.06.601-7.875.631a5.337 5.337 0 01-.571 3.489c-5.603 10.316-14.407 14.617-27.365 12.919a5.42 5.42 0 01-.806 1.422c-3.966 5.051-8.355 8.043-13.304 9.182-4.077.939-8.649.636-13.896-1.237-.151.128-.31.249-.476.362-4.96 3.365-10.28 5.086-16.14 4.363-2.322-.286-4.773-.987-7.355-2.217a5.68 5.68 0 01-1.333.725c-7.28 2.781-20.331 1.824-27.829-8.965a5.751 5.751 0 01-1.961.663c.468.435.737.677.737.677h.001a5.408 5.408 0 011.816 3.9 5.392 5.392 0 01-1.627 3.982l-.009.009s-2.571 2.474-3.77 4.543c-.33.568-1.687 2.368-2.883 3.515-.727.698-1.459 1.158-1.963 1.311-.921.279-2.296 1.393-3.723 2.666-2.121 1.893-4.761 5.172-5.163 5.677-.01.074-.024.148-.043.221-.426 1.666-.913 3.268-1.509 4.753a1.905 1.905 0 01-.35.564l-6.336 7.106a1.924 1.924 0 01-2.875 0l-6.331-7.1a1.926 1.926 0 01-.35-.564c-.596-1.486-1.085-3.09-1.511-4.759a1.874 1.874 0 01-.043-.221c-.403-.505-3.042-3.784-5.163-5.677-1.427-1.273-2.802-2.387-3.723-2.666-.504-.153-1.236-.613-1.963-1.311-1.197-1.147-2.553-2.947-2.883-3.515-1.199-2.069-3.77-4.543-3.77-4.543l-.009-.009a5.392 5.392 0 01-1.627-3.982 5.408 5.408 0 011.816-3.9h.001s.269-.242.737-.677a5.759 5.759 0 01-1.961-.663c-7.498 10.789-20.549 11.746-27.829 8.965a5.68 5.68 0 01-1.333-.725c-2.582 1.23-5.033 1.931-7.355 2.217-5.86.723-11.18-.998-16.14-4.363a5.675 5.675 0 01-.476-.362c-5.247 1.873-9.819 2.176-13.896 1.237-4.949-1.139-9.338-4.131-13.304-9.182a5.42 5.42 0 01-.806-1.422c-12.958 1.698-21.762-2.603-27.365-12.919a5.337 5.337 0 01-.571-3.489c-2.815-.03-5.443-.239-7.875-.631-11.8-1.899-19.521-7.787-22.869-17.735a5.339 5.339 0 01.64-4.701 5.538 5.538 0 011.633-1.587 56.674 56.674 0 01-4.774-1.313c-12.884-4.186-20.341-12.022-22.034-23.499a5.374 5.374 0 011.463-4.52 5.727 5.727 0 014.44-1.726l.796.044a74.063 74.063 0 01-6.829-2.898c-14.344-7.004-21.645-17.06-21.176-29.833a5.429 5.429 0 012.236-4.177 5.77 5.77 0 014.651-.968 714.139 714.139 0 0056.149 10.126c8.599 1.2 40.183 6.241 48.047 7.3 10.056 1.354 20.445 2.637 21.397 2.744l.141.017c17.412 2.172 30.677 10.444 35.5 14.181 10.29 7.609 19.303 12.955 27.472 16.795l.436.21a1540.91 1540.91 0 004.74-8.926c.415-.786.843-1.552 1.118-2.306.168-.459.297-.902.194-1.342a5.355 5.355 0 011.099-4.635 5.7 5.7 0 014.313-2.052z"/><path d="M296.067 265.995l3.932 4.408 3.934-4.412c.959-5.048-.376-13.469-3.933-27.797-2.8 11.278-4.223 18.896-4.234 24.091-.003 1.406.097 2.635.301 3.71zM300 232.651s-7.581 20.074-6.582 26.783c-1.294-2.6-6.237-7.271-9.674-9.025 4.866-4.101 12.87-17.412 13.667-24.691.638.957 2.589 2.34 2.589 2.34s1.951-1.383 2.589-2.34c.797 7.279 8.801 20.59 13.667 24.691-3.437 1.754-8.38 6.425-9.674 9.025.999-6.709-6.582-26.783-6.582-26.783zm-4.288-8.625c.041 6.867-8.005 20.325-14.208 23.846-1.501-2.589-4.681-5.714-4.681-5.714s15.956-14.281 15.908-21.841c.638.956 2.981 3.709 2.981 3.709zm8.576 0c-.041 6.867 8.005 20.325 14.208 23.846 1.501-2.589 4.681-5.714 4.681-5.714s-15.956-14.281-15.908-21.841c-.638.956-2.981 3.709-2.981 3.709zm-57.77-5.788c-11.585 11.297-13.509 12.28-24.168 20.152 9.402 6.377 20.302 5.675 35.869-15.132-1.506-.109-2.97-.589-4.388-1.458-4.485 3.897-8.145 6.292-9.838 6.1a490.836 490.836 0 007.106-8.504 2.651 2.651 0 01-.235-1.855c-1.515.464-2.966.693-4.346.697zm106.964 0c11.585 11.297 13.508 12.28 24.168 20.152-9.402 6.377-20.302 5.675-35.869-15.132 1.506-.109 2.97-.589 4.388-1.458 4.485 3.897 8.145 6.292 9.838 6.1a490.836 490.836 0 01-7.106-8.504 2.661 2.661 0 00.235-1.855c1.515.464 2.966.693 4.346.697zm-93.956 5.024c-7.953 11.314-5.788 9.096-13.512 17.393 7.035 2.687 20.811.463 24.66-15.114-1.268.015-2.56-.251-3.863-.851-3.233 4.1-6.001 6.755-7.489 6.832a424.643 424.643 0 004.907-8.841 2.735 2.735 0 01-.227-.682l-.004.002c-1.525.739-3.017 1.165-4.472 1.261zm80.948 0c7.953 11.314 5.788 9.096 13.512 17.393-7.035 2.687-20.811.463-24.66-15.114 1.268.015 2.56-.251 3.863-.851 3.233 4.1 6.001 6.755 7.489 6.832a424.643 424.643 0 01-4.907-8.841c.106-.218.182-.447.227-.682l.004.002c1.525.739 3.017 1.165 4.472 1.261zm-107.302-13.081c-15.835 10.64-23.25 14.212-37.244 21.07 10.153 12.928 22.875 9.674 49.004-13.112a11.334 11.334 0 01-5.156-2.017c-5.885 3.468-10.522 5.43-12.399 4.901a563.974 563.974 0 009.442-7.764 2.666 2.666 0 01.091-3.326 20.48 20.48 0 01-3.738.248zm133.656 0c15.835 10.64 23.25 14.212 37.244 21.07-10.154 12.928-22.875 9.674-49.004-13.112a11.334 11.334 0 005.156-2.017c5.885 3.468 10.522 5.43 12.399 4.901a563.974 563.974 0 01-9.442-7.764 2.666 2.666 0 00-.091-3.326 20.48 20.48 0 003.738.248zm-54.173 2.153l-4.464 6.694c.271.707 1.112 2.057 3.962 3.172l2.654.3 1.41 1.466c-1.629.22-2.931 1.298-3.053 2.48.664-.417 1.945-.592 3.226-.298.337.711 1.089 3.709 1.051 4.625l1.83.93c.471.476.156 2.395-.47 2.871 1.281.165 2.425-1.705 2.197-3.051 1.251-1.194-.493-4.092-1.7-5.579 1.281.651 2.266 1.431 2.69 2.493l1.436-.247c1.749.735 2.274 2.469 1.992 3.845 1.566-.957 2.173-3.506.584-4.595-.959-1.324-2.462-2.377-4.653-3.085.803-.523 1.784-.681 3.016-.332.634.316.87.779.808 1.352 2.675-.272 2.527-2.911.862-3.446l-.093-.508c-1.418-.719-5.394-.413-7.241.715-3.681-2.706-1.687-4.7-6.044-9.802zm-25.31 0l4.464 6.694c-.271.707-1.112 2.057-3.962 3.172l-2.654.3-1.41 1.466c1.629.22 2.931 1.298 3.053 2.48-.664-.417-1.945-.592-3.226-.298-.337.711-1.089 3.709-1.051 4.625l-1.83.93c-.471.476-.156 2.395.47 2.871-1.281.165-2.425-1.705-2.197-3.051-1.251-1.194.493-4.092 1.7-5.579-1.281.651-2.266 1.431-2.69 2.493l-1.436-.247c-1.749.735-2.274 2.469-1.992 3.845-1.566-.957-2.173-3.506-.584-4.595.959-1.324 2.462-2.377 4.653-3.085-.803-.523-1.785-.681-3.016-.332-.634.316-.87.779-.808 1.352-2.675-.272-2.528-2.911-.862-3.446l.093-.508c1.418-.719 5.394-.413 7.241.715 3.681-2.706 1.687-4.7 6.044-9.802zm-61.682 13.939c-1.431-.428-13.987 3.387-19.819 6.284a8.455 8.455 0 001.552.522c2.729.628 5.792-.079 9.483-1.737 2.684-1.206 5.594-2.894 8.784-5.069zm168.493 6.284c-5.832-2.897-18.388-6.712-19.819-6.284 3.19 2.175 6.1 3.863 8.784 5.069 3.691 1.658 6.754 2.365 9.483 1.737a8.455 8.455 0 001.552-.522zm-173.773-33.868c-20.787 9.179-34.385 13.881-52.122 18.987 8.864 16.319 28.162 12.996 62.884-7.681-2.357-.373-4.446-1.281-6.251-2.743-7.313 2.699-12.91 3.978-14.911 3.049a666.436 666.436 0 0011.801-6.537 18.813 18.813 0 01-.623-1.012 2.656 2.656 0 01-.187-2.265 2.819 2.819 0 011.653-1.631l.242-.092a29.646 29.646 0 01-2.486-.075zm159.234 0c20.787 9.179 34.385 13.881 52.122 18.987-8.864 16.319-28.162 12.996-62.884-7.681 2.357-.373 4.446-1.281 6.251-2.743 7.313 2.699 12.91 3.978 14.911 3.049a666.436 666.436 0 01-11.801-6.537c.215-.325.422-.662.623-1.012.399-.694.467-1.52.187-2.265a2.819 2.819 0 00-1.653-1.631l-.242-.092c.855.009 1.684-.016 2.486-.075zM300 213.498c.787-2.519 1.359-6.002 1.596-9.979 1.491-1.554 2.855-3.723 4.071-4.905.354 6.125-.088 20.863-5.667 26.643-5.579-5.78-6.021-20.518-5.667-26.643 1.216 1.182 2.58 3.351 4.071 4.905.237 3.977.809 7.46 1.596 9.979zm121.811 6.997c-8.827-2.694-30.147-4.893-30.672-4.757 7.608 3.572 14.113 5.782 19.651 6.524 4.467.598 8.119.046 11.021-1.767zm-212.95-4.757c-.525-.136-21.845 2.063-30.672 4.757 2.902 1.813 6.554 2.365 11.021 1.767 5.538-.742 12.043-2.952 19.651-6.524zm107.562-31.669c1.729 9.658 4.621 17.969 7.727 24.389 3.106 6.42 6.426 10.95 9.012 13.048-6.739 4.572-16.412-14.068-16.739-37.437zm-32.846 0c-1.729 9.658-4.621 17.969-7.727 24.389-3.106 6.42-6.427 10.95-9.012 13.048 6.739 4.572 16.412-14.068 16.739-37.437zm-.95-3.301a1.134 1.134 0 00-1.411.45l-8.798 14.857c-6.871 9.508-12.304 15.82-18.744 22.08 9.009 12.429 23.292-10.791 28.954-37.387h-.001zm34.746 0a1.134 1.134 0 011.411.45l8.798 14.857c6.871 9.508 12.304 15.82 18.744 22.08-9.009 12.429-23.292-10.791-28.954-37.387h.001zm-10.699 14.569c1.372 7.236 1.605 16.68-1.63 24.683 7.419-9.976 8.876-18.987 8.469-20.54-.638.956-2.963 2.142-4.163 2.298l-2.676-6.441zm-13.348 0c-1.372 7.236-1.605 16.68 1.63 24.683-7.419-9.976-8.876-18.987-8.469-20.54.638.956 2.963 2.142 4.163 2.298l2.676-6.441zm-9.03 1.417c-.703 6.526-2.964 14.573-6.178 20.035 3.412-1.611 7.165-4.478 8.153-8.076-1.436-3.121-2.122-7.512-1.975-11.959zm31.408 0c.703 6.526 2.964 14.573 6.178 20.035-3.413-1.611-7.165-4.478-8.153-8.076 1.436-3.121 2.122-7.512 1.975-11.959zm8.033-16.67c-.841-.89-2.19-1.149-3.324-.637 22.102 40.366 34.008 40.314 40.423 32.207-8.55-5.443-17.492-12.124-27.134-21.019l-9.965-10.551zm-47.474 0c.84-.89 2.19-1.149 3.324-.637-22.102 40.366-34.008 40.314-40.423 32.207 8.55-5.443 17.492-12.124 27.134-21.019l9.965-10.551zm-69.301 4.18c-4.384.935-49.139 10.146-69.643 12.412 6.698 19.905 36.088 18.5 80.411 1.673-3.171-.592-5.856-1.818-8.026-3.7-8.68 1.569-15.147 1.912-17.195.527a798.198 798.198 0 0013.805-4.705 19.877 19.877 0 01-1.23-2.592 2.655 2.655 0 01.2-2.346 2.866 2.866 0 011.678-1.269c.261-.055.379-.081.341-.075-.116.019-.23.044-.341.075zm186.076 0a4.986 4.986 0 01-.341-.075c.116.019.23.044.341.075 4.384.935 49.139 10.146 69.643 12.412-6.698 19.905-36.088 18.5-80.411 1.673 3.171-.592 5.856-1.818 8.026-3.7 8.68 1.569 15.147 1.912 17.195.527a801.162 801.162 0 01-13.806-4.705c.459-.804.869-1.668 1.231-2.592a2.655 2.655 0 00-.2-2.346 2.866 2.866 0 00-1.678-1.269zm-123.522-6.542a6.125 6.125 0 015.907-.252l.04.02c-33.478 35.256-45.992 34-51.777 23.932 10.825-4.094 22.327-9.457 35.04-17.084l10.79-6.616zm60.968 0a6.125 6.125 0 00-5.907-.252l-.04.02c33.478 35.256 45.992 34 51.777 23.932-10.825-4.094-22.327-9.457-35.04-17.084l-10.79-6.616zm122.85 23.276c-12.056-1.772-44.344-.328-45.689.016 11.177 3.13 20.885 4.792 28.925 4.772 7.286-.017 13.025-1.432 16.764-4.788zm-260.98.016c-1.344-.344-33.632-1.788-45.688-.016 3.739 3.356 9.478 4.771 16.764 4.788 8.04.02 17.748-1.642 28.924-4.772zM300 193.103c.573-1.835 1.032-4.181 1.331-6.856 1.595-.799 2.767-1.358 4.055-2.31.912 9.186-.028 13.845-5.386 18.655-5.358-4.81-6.298-9.469-5.386-18.655 1.288.952 2.46 1.511 4.055 2.31.299 2.675.758 5.021 1.331 6.856zm6.674-10.152c.766 3.237.384 6.984.793 9.484.55 3.362 1.83 5.236 2.622 7.874 7.572-3.983 4.094-20.906 3.048-22.689-.217.623-1.979 2.568-1.979 2.568s1.066 4.224.313 7.096c-.451-4.254-2.737-5.544-2.737-5.544s-1.834 1.157-2.06 1.211zm-13.348 0c-.766 3.237-.384 6.984-.793 9.484-.55 3.362-1.83 5.236-2.622 7.874-7.572-3.983-4.094-20.906-3.048-22.689.216.623 1.979 2.568 1.979 2.568s-1.066 4.224-.313 7.096c.451-4.254 2.737-5.544 2.737-5.544s1.834 1.157 2.06 1.211zm-31.8-10.683a6.129 6.129 0 014.934.418c.777.436 1.56.836 2.351 1.201.285.167.571.334.859.499-42.95 28.22-57.24 24.383-61.888 12.524 13.19-2.132 27.391-5.501 43.4-11.082l10.344-3.56zm76.948 0a6.129 6.129 0 00-4.934.418c-.777.436-1.56.836-2.351 1.201-.285.167-.571.334-.859.499 42.95 28.22 57.24 24.383 61.887 12.524-13.189-2.132-27.39-5.501-43.399-11.082l-10.344-3.56zm-99.692 13.312a254.033 254.033 0 01-18.979 4.713c1.14.119 2.429.088 3.88-.077 4.06-.463 9.017-1.935 15.099-4.636zm122.436 0c6.082 2.701 11.039 4.173 15.099 4.636 1.451.165 2.74.196 3.88.077a254.525 254.525 0 01-18.979-4.713zm-171.687-18.457c-28.363 1.876-53.251.679-76.524-.621 3.465 23.505 37.645 27.304 92.237 16.602-4.367-1.039-7.912-2.8-10.584-5.307-9.752.063-25.209-.428-27.186-2.294 7.083-.275 18.34-1.866 23.48-2.717-.688-1.393-1.89-5.033-1.423-5.663zm220.938 0c28.363 1.876 53.251.679 76.524-.621-3.466 23.505-37.645 27.304-92.237 16.602 4.367-1.039 7.912-2.8 10.584-5.307 9.752.063 25.209-.428 27.186-2.294-7.083-.275-18.34-1.866-23.48-2.717.688-1.393 1.89-5.033 1.423-5.663zm-101.089-4.565c3.243.235 5.625 1.33 5.843 4.583-1.563-.579-3.749-.461-6.705.516-.218.072-2.738.323-2.965.404.009.209 2.363.526 2.389.729.42 3.271 2.964 5.485 4.12 7.27.021 2.022-6.158 6.274-12.062 8.269-5.726-1.743-11.477-6.349-12.126-8.346 1.53-4.743 6.906-10.55 5.825-15.193l10.467-.153c.329-.005.658.022.982.082 1.52.28 2.425.555 3.011 1.529-1.602.281-1.437-.22-2.327-.274-1.251-.076-2.758.044-3.718.168 1.368.512 2.244 1.464 2.669 2.157 1.411-.716 2.996-1.751 4.597-1.741zm-188.128 9.9c12.967.673 44.859 8.811 47.673 9.386 1.109.226 2.476.422 4.019.591-12.541 1.205-23.297 1.182-32.036-.228-9.302-1.501-16.111-4.535-19.656-9.749zm305.804 9.977c1.543-.169 2.91-.365 4.019-.591 2.814-.575 34.706-8.713 47.673-9.386-3.545 5.214-10.354 8.248-19.656 9.749-8.739 1.41-19.495 1.433-32.036.228zm-78.117-18.38a6.094 6.094 0 00-4.306 1.098c-2.221 1.617-4.322 3.177-6.387 4.592 51.61 18.748 66.539 11.3 69.579-2.113-15.547.522-32.483-.089-51.903-2.723l-6.983-.854zm-97.878 0a6.094 6.094 0 014.306 1.098c2.221 1.617 4.322 3.177 6.387 4.592-51.61 18.748-66.539 11.3-69.579-2.113 15.547.522 32.483-.089 51.903-2.723l6.983-.854zm46.14 14.113c-1.711-1.018-4.15-3.584-3.98-3.879 1.168.728 2.419 1.438 3.651 2.012a46.38 46.38 0 003.236-1.673 33.26 33.26 0 003.099 1.673 44.381 44.381 0 002.762-1.409c.229.37-1.628 2.528-2.972 3.276a44.692 44.692 0 00-2.958-1.518c-.95.443-1.912.967-2.838 1.518zm-56.876-7.226c-13.605 1.662-26.01 2.344-37.598 2.361 1.716.984 3.916 1.669 6.698 1.984 7.09.802 17.032-.419 30.9-4.345zm119.35 0c13.868 3.926 23.81 5.147 30.9 4.345 2.782-.315 4.982-1 6.698-1.984-11.588-.017-23.992-.699-37.598-2.361zm-162.712-6.306c-3.214-.438-14.958-4.704-16.727-8.596-10.168-1.711-30.845-5.686-32.6-7.996 9.533 2.733 23.594 1.993 28.77 2.02-.834-2.044-1.336-4.267-1.498-6.67-.032-.484.069-.96.285-1.384-31-3.22-58.335-7.899-83.44-13.469-.981 26.735 40.851 37.79 105.21 36.095zm206.074 0c3.214-.438 14.958-4.704 16.727-8.596 10.168-1.711 30.845-5.686 32.6-7.996-9.533 2.733-23.594 1.993-28.77 2.02.834-2.044 1.336-4.267 1.498-6.67a2.658 2.658 0 00-.285-1.384c31-3.22 58.335-7.899 83.44-13.469.981 26.735-40.851 37.79-105.21 36.095zm-152.119-2.645c-6.46.857-12.693 1.512-18.107 1.859-36.363 2.333-53.847-3.071-55.026-20.633 6.458 1.427 19.738 3.234 35.123 5.019 1.659.193 3.342.385 5.045.576 14.951 2.149 24.919 7.659 32.965 13.179zm98.164 0c6.46.857 12.693 1.512 18.107 1.859 36.363 2.333 53.847-3.071 55.026-20.633-6.459 1.427-19.738 3.234-35.123 5.019-1.659.193-3.342.385-5.045.576-14.951 2.149-24.919 7.659-32.965 13.179zm-139.05-8.55c.723.085 4.635.538 5.877.679l1.28.145c5.953.862 11.049 2.306 15.515 4.079l-.278.018c-17.103 1.097-29.778.544-38.304-2.518-3.632-1.304-6.329-3.131-8.1-5.57 6.496 1 14.836 2.087 24.01 3.167zm157.264 4.903c4.466-1.773 9.561-3.216 15.514-4.079 1.679-.189 3.338-.379 4.973-.568l-.691.04.693-.041c10.033-1.164 19.185-2.343 26.193-3.422-1.771 2.439-4.468 4.266-8.1 5.57-8.526 3.062-21.201 3.615-38.304 2.518l-.278-.018zm67.423.508c6.383-1.305 12.773-2.787 16.51-4.08 3.192-1.105 35.778-16.093 50.101-19.099-2.101 5.206-6.908 9.362-13.768 12.711-12.184 5.949-30.287 9.315-52.843 10.468zM98.67 135.673c14.323 3.006 46.909 17.994 50.101 19.099 3.737 1.293 10.127 2.775 16.51 4.08-22.556-1.153-40.659-4.519-52.843-10.468-6.86-3.349-11.667-7.505-13.768-12.711z" fill="#aaa"/></g><defs><radialGradient id="_Radial1" cx="0" cy="0" r="1" gradientUnits="userSpaceOnUse" gradientTransform="matrix(0 -366.128 358.626 0 300 200.041)"><stop offset="0" stop-color="#fff" stop-opacity="1"/><stop offset="1" stop-color="#eee" stop-opacity="1"/></radialGradient></defs></svg>