<svg xmlns="http://www.w3.org/2000/svg" width="106.546" height="79.488"><defs><linearGradient id="a41kmrsgma" y1=".45" x2=".965" y2=".457" gradientUnits="objectBoundingBox"><stop offset="0" stop-color="#2e7a9c"/><stop offset=".394" stop-color="#62b8e7"/><stop offset="1" stop-color="#2ee8d9"/></linearGradient></defs><path data-name="Path 31601" d="M58.587 17.423h-.326a17.423 17.423 0 105.1-12.32 17.308 17.308 0 00-5.1 12.32zm2.174 0h.5a14.421 14.421 0 1114.42 14.425 14.422 14.422 0 01-14.42-14.427zm-10.352 10.4a1.5 1.5 0 01-1.5 1.5h-4.6a1.5 1.5 0 010-3h4.6a1.5 1.5 0 011.5 1.5m-19.055 0a1.5 1.5 0 011.5-1.5h5.774a1.5 1.5 0 010 3h-5.774a1.5 1.5 0 01-1.5-1.5m74.692 37.317h.5a7.173 7.173 0 00-1.8-4.752v-2.2a19.953 19.953 0 00-19.9-19.9H66.523a19.838 19.838 0 00-19.278 15.033H3V6.559a1.625 1.625 0 011.512-1.725 1.4 1.4 0 01.194 0h54.616v-3H4.755a3.529 3.529 0 00-.437.007A4.619 4.619 0 00.006 6.657v54.012a5.4 5.4 0 005.367 5.361H35.03v4.3H24.072a1.5 1.5 0 000 3h20.743v6.158h3V65.143a4.247 4.247 0 014.231-4.227h47.271a4.245 4.245 0 014.229 4.225v14.347h3V65.14zm-4.305-6.951v.154a7.232 7.232 0 00-2.426-.428h-47.27a7.221 7.221 0 00-2.421.425v-.15a16.947 16.947 0 0116.9-16.9H84.84a16.947 16.947 0 0116.9 16.9m-65.21 4.845H5.377a2.385 2.385 0 01-2.371-2.369v-4.345h43.716c-.062.622-.1 1.248-.1 1.869v2.189a7.172 7.172 0 00-1.809 4.762v5.188l-6.784.006v-5.8a1.5 1.5 0 00-1.5-1.5M50.41 17.419a1.5 1.5 0 01-1.5 1.5h-5.968a1.5 1.5 0 010-3h5.968a1.5 1.5 0 011.5 1.5m-13.147 1.5h-5.774a1.5 1.5 0 010-3h5.774a1.5 1.5 0 010 3m-5.675 19.3a1.5 1.5 0 011.5-1.5h5.774a1.5 1.5 0 010 3h-5.774a1.5 1.5 0 01-1.5-1.5M23.7 18.923a1.5 1.5 0 010-3h2.11a1.5 1.5 0 010 3zm-14.024-1.5a1.5 1.5 0 011.5-1.5h6.841a1.5 1.5 0 010 3h-6.843a1.5 1.5 0 01-1.5-1.5m0 20.8a1.5 1.5 0 011.5-1.5h6.841a1.5 1.5 0 010 3h-6.841a1.5 1.5 0 01-1.5-1.5m17.5-8.895H19.6a1.5 1.5 0 010-3h7.575a1.5 1.5 0 011.5 1.5 1.5 1.5 0 01-1.5 1.5m-17.5-1.5a1.5 1.5 0 011.5-1.5h2.744a1.5 1.5 0 010 3h-2.745a1.5 1.5 0 01-1.5-1.5m16.934 8.895a1.5 1.5 0 110 3H24.5a1.5 1.5 0 010-3z" fill="url(#a41kmrsgma)"/></svg>